<svg xmlns="http://www.w3.org/2000/svg" xmlns:xlink="http://www.w3.org/1999/xlink" id="Layer_1" x="0px" y="0px" viewBox="0 0 1398.8 343.9" style="enable-background:new 0 0 1398.8 343.9;" xml:space="preserve"><style type="text/css">	.st0{fill:#333434;}	.st1{fill:#2A607B;}	.st2{fill:#BE2334;}	.st3{fill:#F3B541;}</style><path class="st0" d="M549.4,267.2c0-13.4,10.1-21.9,21.4-21.9c11.6,0,17.6,7.1,19.3,13.9l-7.7,2.4c-1-4-4.3-8.5-11.5-8.5 c-6.3,0-13,4.5-13,14c0,8.9,6.3,13.9,13,13.9c5.5,0.2,10.4-3.3,11.8-8.6l7.6,2.3c-1.6,6.5-7.6,14.3-19.4,14.3 C559.2,289,549.4,280.6,549.4,267.2z"></path><path class="st0" d="M662.4,288.2v-17.4h-20.1v17.4h-9v-42h9v16.9h20.1v-16.9h9.1v42H662.4z"></path><path class="st0" d="M716.5,246.2H727l10.4,16.7l10.4-16.7h10.1l-16.3,24.4v17.7h-9v-17.7L716.5,246.2z"></path><path class="st0" d="M817.7,270.8l-5.7,5.7v11.7h-9.1v-42h9v19.1l18.5-19h11.8l-18.3,18.3l18.5,23.7h-11.3L817.7,270.8z"></path><path class="st0" d="M914.9,278.6H896l-3.8,9.6h-9.5l17.7-42h10.4l17.6,42h-9.8L914.9,278.6z M899.1,271.1h12.8l-6.4-15.9 L899.1,271.1z"></path><path class="st0" d="M973.5,288.2v-42h9v34.2h20.6v7.8H973.5z"></path><path class="st0" d="M1067.7,245.3c11.4,0,21.6,8.4,21.6,21.9c0,13.6-10.2,21.9-21.6,21.9c-11.4,0-21.6-8.4-21.6-21.9 S1056.3,245.3,1067.7,245.3z M1067.7,281.1c6.5,0,13.2-4.5,13.2-14c0-9.5-6.6-14-13.2-14c-6.5,0-13.1,4.5-13.1,14 C1054.6,276.6,1061.2,281.1,1067.7,281.1z"></path><path class="st0" d="M1141.5,272.4v15.8h-9v-42h17.3c9.1,0,15.2,5.5,15.2,13.1c0,7.6-6.1,13.1-15.2,13.1H1141.5z M1148.7,265.3 c4.5,0,7.2-2.4,7.2-6c0-3.6-2.7-6-7.2-6h-7.2v12H1148.7z"></path><path class="st0" d="M1240.1,288.2v-17.4h-20.2v17.4h-9v-42h9v16.9h20.2v-16.9h9.1v42H1240.1z"></path><path class="st0" d="M1298.8,288.2v-42h9.1v42H1298.8z"></path><path class="st0" d="M1385.1,278.6h-18.8l-3.9,9.6h-9.5l17.7-42h10.4l17.6,42h-9.8L1385.1,278.6z M1369.4,271.1h12.8l-6.4-15.9 L1369.4,271.1z"></path><path class="st1" d="M137.5,124.9c10.5,2.4,20.4,6.7,29.3,12.7c20.2-16.3,31.9-40.9,31.9-66.9V44.2h-26.5v26.5 C172.2,94,158.7,115.2,137.5,124.9z"></path><rect x="338.1" y="130.3" class="st2" width="26.6" height="172.4"></rect><rect x="463.9" y="44.4" class="st0" width="26.6" height="112.2"></rect><path class="st2" d="M198.8,216.5c-0.1-47.6-38.6-86.1-86.2-86.2v26.6c32.9,0,59.6,26.7,59.6,59.6"></path><path class="st3" d="M26.6,220.8H0c2.5,45.7,40.2,81.6,86,81.6v-26.6C54.9,275.8,29,251.9,26.6,220.8z"></path><path class="st0" d="M0.1,211h26.6c2.9-30.6,28.6-53.9,59.4-54v-26.6C40.7,130.4,3,165.6,0.1,211z"></path><rect x="225.4" y="44.2" class="st2" width="26.6" height="81.3"></rect><path class="st0" d="M252.2,135.3h-26.6c2.7,45.6,40.4,81.1,86,81.2v-26.6C280.6,189.9,254.8,166.2,252.2,135.3z"></path><path class="st3" d="M374.6,130.9v26.8c28.7,4.9,49.7,29.7,49.7,58.8h27.4C451.7,172.3,417.6,135.8,374.6,130.9z"></path><path class="st1" d="M500.4,130.7v26.8c28.7,4.9,49.7,29.7,49.7,58.8h26.6C576.6,172.5,543.8,135.8,500.4,130.7z"></path></svg>